<svg width="727" height="367" viewBox="0 0 727 367" fill="none" xmlns="http://www.w3.org/2000/svg">
<path d="M207.7 82.8H367.9V122.4H254.8V168.3H358.6V204.9H254.8V257.4H370.3V297H207.7V82.8Z" fill="white"/>
<path d="M512.5 272.7C504.1 283.5 494.8 291.1 484.6 295.5C474.4 299.7 464.1 301.8 453.7 301.8C437.3 301.8 422.5 299 409.3 293.4C396.3 287.6 385.3 279.7 376.3 269.7C367.3 259.7 360.4 248 355.6 234.6C350.8 221 348.4 206.4 348.4 190.8C348.4 174.8 350.8 160 355.6 146.4C360.4 132.6 367.3 120.6 376.3 110.4C385.3 100.2 396.3 92.2 409.3 86.4C422.5 80.6 437.3 77.7 453.7 77.7C464.7 77.7 475.3 79.4 485.5 82.8C495.9 86 505.2 90.8 513.4 97.2C521.8 103.6 528.7 111.5 534.1 120.9C539.5 130.3 542.8 141.1 544 153.3H499C496.2 141.3 490.8 132.3 482.8 126.3C474.8 120.3 465.1 117.3 453.7 117.3C443.1 117.3 434.1 119.4 426.7 123.6C419.3 127.6 413.3 133.1 408.7 140.1C404.1 146.9 400.7 154.7 398.5 163.5C396.5 172.3 395.5 181.4 395.5 190.8C395.5 199.8 396.5 208.6 398.5 217.2C400.7 225.6 404.1 233.2 408.7 240C413.3 246.8 419.3 252.3 426.7 256.5C434.1 260.5 443.1 262.5 453.7 262.5C469.3 262.5 481.3 258.6 489.7 250.8C498.3 242.8 503.3 231.3 504.7 216.3H457.3V181.2H547.3V297H517.3L512.5 272.7Z" fill="white"/>
<path d="M20.7 82.8H87L137.1 230.1H137.7L185.1 82.8H251.4V297H207.3V145.2H206.7L154.2 297H117.9L65.4 146.7H64.8V297H20.7V82.8Z" fill="white"/>
<path d="M593.7 214.2H649.2L622.2 135.6H621.6L593.7 214.2ZM598.2 82.8H646.5L726.6 297H677.7L661.5 249.3H581.4L564.6 297H517.2L598.2 82.8Z" fill="white"/>
</svg>
