<svg width="469" height="46" viewBox="0 0 469 46" fill="none" xmlns="http://www.w3.org/2000/svg">
<path d="M16.1613 19.86H17.4613L19.7113 25.86L21.9713 19.86H23.2713V27H22.3713V21.06H22.3513L20.1213 27H19.3113L17.0813 21.06H17.0613V27H16.1613V19.86ZM29.2923 26.98C29.1456 27.0667 28.9423 27.11 28.6823 27.11C28.4623 27.11 28.2856 27.05 28.1523 26.93C28.0256 26.8033 27.9623 26.6 27.9623 26.32C27.7289 26.6 27.4556 26.8033 27.1423 26.93C26.8356 27.05 26.5023 27.11 26.1423 27.11C25.9089 27.11 25.6856 27.0833 25.4723 27.03C25.2656 26.9767 25.0856 26.8933 24.9323 26.78C24.7789 26.6667 24.6556 26.52 24.5623 26.34C24.4756 26.1533 24.4323 25.93 24.4323 25.67C24.4323 25.3767 24.4823 25.1367 24.5823 24.95C24.6823 24.7633 24.8123 24.6133 24.9723 24.5C25.1389 24.38 25.3256 24.29 25.5323 24.23C25.7456 24.17 25.9623 24.12 26.1823 24.08C26.4156 24.0333 26.6356 24 26.8423 23.98C27.0556 23.9533 27.2423 23.92 27.4023 23.88C27.5623 23.8333 27.6889 23.77 27.7823 23.69C27.8756 23.6033 27.9223 23.48 27.9223 23.32C27.9223 23.1333 27.8856 22.9833 27.8123 22.87C27.7456 22.7567 27.6556 22.67 27.5423 22.61C27.4356 22.55 27.3123 22.51 27.1723 22.49C27.0389 22.47 26.9056 22.46 26.7723 22.46C26.4123 22.46 26.1123 22.53 25.8723 22.67C25.6323 22.8033 25.5023 23.06 25.4823 23.44H24.6323C24.6456 23.12 24.7123 22.85 24.8323 22.63C24.9523 22.41 25.1123 22.2333 25.3123 22.1C25.5123 21.96 25.7389 21.86 25.9923 21.8C26.2523 21.74 26.5289 21.71 26.8223 21.71C27.0556 21.71 27.2856 21.7267 27.5123 21.76C27.7456 21.7933 27.9556 21.8633 28.1423 21.97C28.3289 22.07 28.4789 22.2133 28.5923 22.4C28.7056 22.5867 28.7623 22.83 28.7623 23.13V25.79C28.7623 25.99 28.7723 26.1367 28.7923 26.23C28.8189 26.3233 28.8989 26.37 29.0323 26.37C29.1056 26.37 29.1923 26.3533 29.2923 26.32V26.98ZM27.9123 24.33C27.8056 24.41 27.6656 24.47 27.4923 24.51C27.3189 24.5433 27.1356 24.5733 26.9423 24.6C26.7556 24.62 26.5656 24.6467 26.3723 24.68C26.1789 24.7067 26.0056 24.7533 25.8523 24.82C25.6989 24.8867 25.5723 24.9833 25.4723 25.11C25.3789 25.23 25.3323 25.3967 25.3323 25.61C25.3323 25.75 25.3589 25.87 25.4123 25.97C25.4723 26.0633 25.5456 26.14 25.6323 26.2C25.7256 26.26 25.8323 26.3033 25.9523 26.33C26.0723 26.3567 26.1989 26.37 26.3323 26.37C26.6123 26.37 26.8523 26.3333 27.0523 26.26C27.2523 26.18 27.4156 26.0833 27.5423 25.97C27.6689 25.85 27.7623 25.7233 27.8223 25.59C27.8823 25.45 27.9123 25.32 27.9123 25.2V24.33ZM30.1334 19.86H30.9834V24.09L33.3434 21.83H34.4834L32.4334 23.71L34.6334 27H33.5534L31.7834 24.3L30.9834 25.04V27H30.1334V19.86ZM38.8589 23.92C38.8456 23.72 38.7989 23.53 38.7189 23.35C38.6456 23.17 38.5422 23.0167 38.4089 22.89C38.2822 22.7567 38.1289 22.6533 37.9489 22.58C37.7756 22.5 37.5822 22.46 37.3689 22.46C37.1489 22.46 36.9489 22.5 36.7689 22.58C36.5956 22.6533 36.4456 22.7567 36.3189 22.89C36.1922 23.0233 36.0922 23.18 36.0189 23.36C35.9456 23.5333 35.9022 23.72 35.8889 23.92H38.8589ZM39.6789 25.36C39.5656 25.94 39.3156 26.3767 38.9289 26.67C38.5422 26.9633 38.0556 27.11 37.4689 27.11C37.0556 27.11 36.6956 27.0433 36.3889 26.91C36.0889 26.7767 35.8356 26.59 35.6289 26.35C35.4222 26.11 35.2656 25.8233 35.1589 25.49C35.0589 25.1567 35.0022 24.7933 34.9889 24.4C34.9889 24.0067 35.0489 23.6467 35.1689 23.32C35.2889 22.9933 35.4556 22.71 35.6689 22.47C35.8889 22.23 36.1456 22.0433 36.4389 21.91C36.7389 21.7767 37.0656 21.71 37.4189 21.71C37.8789 21.71 38.2589 21.8067 38.5589 22C38.8656 22.1867 39.1089 22.4267 39.2889 22.72C39.4756 23.0133 39.6022 23.3333 39.6689 23.68C39.7422 24.0267 39.7722 24.3567 39.7589 24.67H35.8889C35.8822 24.8967 35.9089 25.1133 35.9689 25.32C36.0289 25.52 36.1256 25.7 36.2589 25.86C36.3922 26.0133 36.5622 26.1367 36.7689 26.23C36.9756 26.3233 37.2189 26.37 37.4989 26.37C37.8589 26.37 38.1522 26.2867 38.3789 26.12C38.6122 25.9533 38.7656 25.7 38.8389 25.36H39.6789Z" fill="#4048F3"/>
<path d="M156.255 19.86H161.185V20.66H157.205V22.93H160.915V23.73H157.205V26.2H161.215V27H156.255V19.86ZM166.808 26.98C166.661 27.0667 166.458 27.11 166.198 27.11C165.978 27.11 165.801 27.05 165.668 26.93C165.541 26.8033 165.478 26.6 165.478 26.32C165.245 26.6 164.971 26.8033 164.658 26.93C164.351 27.05 164.018 27.11 163.658 27.11C163.425 27.11 163.201 27.0833 162.988 27.03C162.781 26.9767 162.601 26.8933 162.448 26.78C162.295 26.6667 162.171 26.52 162.078 26.34C161.991 26.1533 161.948 25.93 161.948 25.67C161.948 25.3767 161.998 25.1367 162.098 24.95C162.198 24.7633 162.328 24.6133 162.488 24.5C162.655 24.38 162.841 24.29 163.048 24.23C163.261 24.17 163.478 24.12 163.698 24.08C163.931 24.0333 164.151 24 164.358 23.98C164.571 23.9533 164.758 23.92 164.918 23.88C165.078 23.8333 165.205 23.77 165.298 23.69C165.391 23.6033 165.438 23.48 165.438 23.32C165.438 23.1333 165.401 22.9833 165.328 22.87C165.261 22.7567 165.171 22.67 165.058 22.61C164.951 22.55 164.828 22.51 164.688 22.49C164.555 22.47 164.421 22.46 164.288 22.46C163.928 22.46 163.628 22.53 163.388 22.67C163.148 22.8033 163.018 23.06 162.998 23.44H162.148C162.161 23.12 162.228 22.85 162.348 22.63C162.468 22.41 162.628 22.2333 162.828 22.1C163.028 21.96 163.255 21.86 163.508 21.8C163.768 21.74 164.045 21.71 164.338 21.71C164.571 21.71 164.801 21.7267 165.028 21.76C165.261 21.7933 165.471 21.8633 165.658 21.97C165.845 22.07 165.995 22.2133 166.108 22.4C166.221 22.5867 166.278 22.83 166.278 23.13V25.79C166.278 25.99 166.288 26.1367 166.308 26.23C166.335 26.3233 166.415 26.37 166.548 26.37C166.621 26.37 166.708 26.3533 166.808 26.32V26.98ZM165.428 24.33C165.321 24.41 165.181 24.47 165.008 24.51C164.835 24.5433 164.651 24.5733 164.458 24.6C164.271 24.62 164.081 24.6467 163.888 24.68C163.695 24.7067 163.521 24.7533 163.368 24.82C163.215 24.8867 163.088 24.9833 162.988 25.11C162.895 25.23 162.848 25.3967 162.848 25.61C162.848 25.75 162.875 25.87 162.928 25.97C162.988 26.0633 163.061 26.14 163.148 26.2C163.241 26.26 163.348 26.3033 163.468 26.33C163.588 26.3567 163.715 26.37 163.848 26.37C164.128 26.37 164.368 26.3333 164.568 26.26C164.768 26.18 164.931 26.0833 165.058 25.97C165.185 25.85 165.278 25.7233 165.338 25.59C165.398 25.45 165.428 25.32 165.428 25.2V24.33ZM167.569 21.83H168.369V22.92H168.389C168.596 22.5 168.849 22.19 169.149 21.99C169.449 21.79 169.829 21.6967 170.289 21.71V22.61C169.949 22.61 169.659 22.6567 169.419 22.75C169.179 22.8433 168.986 22.98 168.839 23.16C168.692 23.34 168.586 23.56 168.519 23.82C168.452 24.0733 168.419 24.3667 168.419 24.7V27H167.569V21.83ZM172.109 21.83H173.139V22.58H172.109V25.79C172.109 25.89 172.116 25.97 172.129 26.03C172.149 26.09 172.182 26.1367 172.229 26.17C172.276 26.2033 172.339 26.2267 172.419 26.24C172.506 26.2467 172.616 26.25 172.749 26.25H173.139V27H172.489C172.269 27 172.079 26.9867 171.919 26.96C171.766 26.9267 171.639 26.87 171.539 26.79C171.446 26.71 171.376 26.5967 171.329 26.45C171.282 26.3033 171.259 26.11 171.259 25.87V22.58H170.379V21.83H171.259V20.28H172.109V21.83ZM174.083 19.86H174.933V22.59H174.953C175.02 22.43 175.113 22.2967 175.233 22.19C175.353 22.0767 175.487 21.9867 175.633 21.92C175.787 21.8467 175.943 21.7933 176.103 21.76C176.27 21.7267 176.43 21.71 176.583 21.71C176.923 21.71 177.207 21.7567 177.433 21.85C177.66 21.9433 177.843 22.0733 177.983 22.24C178.123 22.4067 178.22 22.6067 178.273 22.84C178.333 23.0667 178.363 23.32 178.363 23.6V27H177.513V23.5C177.513 23.18 177.42 22.9267 177.233 22.74C177.047 22.5533 176.79 22.46 176.463 22.46C176.203 22.46 175.977 22.5 175.783 22.58C175.597 22.66 175.44 22.7733 175.313 22.92C175.187 23.0667 175.09 23.24 175.023 23.44C174.963 23.6333 174.933 23.8467 174.933 24.08V27H174.083V19.86Z" fill="#4048F3"/>
<path d="M267.12 26.11C266.84 26.4833 266.493 26.7533 266.08 26.92C265.667 27.08 265.25 27.16 264.83 27.16C264.297 27.16 263.82 27.0633 263.4 26.87C262.98 26.67 262.623 26.4033 262.33 26.07C262.037 25.7367 261.813 25.3533 261.66 24.92C261.507 24.4867 261.43 24.0367 261.43 23.57C261.43 23.05 261.5 22.5567 261.64 22.09C261.787 21.6167 262 21.2033 262.28 20.85C262.567 20.4967 262.92 20.2167 263.34 20.01C263.767 19.7967 264.263 19.69 264.83 19.69C265.217 19.69 265.58 19.7367 265.92 19.83C266.267 19.9167 266.573 20.0567 266.84 20.25C267.113 20.4433 267.34 20.69 267.52 20.99C267.707 21.2833 267.833 21.64 267.9 22.06H266.95C266.903 21.7867 266.817 21.5533 266.69 21.36C266.563 21.16 266.407 20.9967 266.22 20.87C266.033 20.7433 265.82 20.65 265.58 20.59C265.347 20.5233 265.097 20.49 264.83 20.49C264.397 20.49 264.023 20.5767 263.71 20.75C263.403 20.9233 263.15 21.1533 262.95 21.44C262.757 21.72 262.613 22.0433 262.52 22.41C262.427 22.77 262.38 23.14 262.38 23.52C262.38 23.8933 262.433 24.2533 262.54 24.6C262.647 24.94 262.803 25.2433 263.01 25.51C263.217 25.77 263.47 25.98 263.77 26.14C264.077 26.2933 264.43 26.37 264.83 26.37C265.203 26.37 265.533 26.31 265.82 26.19C266.107 26.07 266.347 25.9067 266.54 25.7C266.74 25.4867 266.89 25.24 266.99 24.96C267.09 24.6733 267.133 24.3667 267.12 24.04H264.84V23.24H267.97V27H267.37L267.12 26.11ZM269.198 21.83H269.998V22.92H270.018C270.225 22.5 270.478 22.19 270.778 21.99C271.078 21.79 271.458 21.6967 271.918 21.71V22.61C271.578 22.61 271.288 22.6567 271.048 22.75C270.808 22.8433 270.615 22.98 270.468 23.16C270.321 23.34 270.215 23.56 270.148 23.82C270.081 24.0733 270.048 24.3667 270.048 24.7V27H269.198V21.83ZM275.972 23.92C275.959 23.72 275.912 23.53 275.832 23.35C275.759 23.17 275.656 23.0167 275.522 22.89C275.396 22.7567 275.242 22.6533 275.062 22.58C274.889 22.5 274.696 22.46 274.482 22.46C274.262 22.46 274.062 22.5 273.882 22.58C273.709 22.6533 273.559 22.7567 273.432 22.89C273.306 23.0233 273.206 23.18 273.132 23.36C273.059 23.5333 273.016 23.72 273.002 23.92H275.972ZM276.792 25.36C276.679 25.94 276.429 26.3767 276.042 26.67C275.656 26.9633 275.169 27.11 274.582 27.11C274.169 27.11 273.809 27.0433 273.502 26.91C273.202 26.7767 272.949 26.59 272.742 26.35C272.536 26.11 272.379 25.8233 272.272 25.49C272.172 25.1567 272.116 24.7933 272.102 24.4C272.102 24.0067 272.162 23.6467 272.282 23.32C272.402 22.9933 272.569 22.71 272.782 22.47C273.002 22.23 273.259 22.0433 273.552 21.91C273.852 21.7767 274.179 21.71 274.532 21.71C274.992 21.71 275.372 21.8067 275.672 22C275.979 22.1867 276.222 22.4267 276.402 22.72C276.589 23.0133 276.716 23.3333 276.782 23.68C276.856 24.0267 276.886 24.3567 276.872 24.67H273.002C272.996 24.8967 273.022 25.1133 273.082 25.32C273.142 25.52 273.239 25.7 273.372 25.86C273.506 26.0133 273.676 26.1367 273.882 26.23C274.089 26.3233 274.332 26.37 274.612 26.37C274.972 26.37 275.266 26.2867 275.492 26.12C275.726 25.9533 275.879 25.7 275.952 25.36H276.792ZM282.333 26.98C282.187 27.0667 281.983 27.11 281.723 27.11C281.503 27.11 281.327 27.05 281.193 26.93C281.067 26.8033 281.003 26.6 281.003 26.32C280.77 26.6 280.497 26.8033 280.183 26.93C279.877 27.05 279.543 27.11 279.183 27.11C278.95 27.11 278.727 27.0833 278.513 27.03C278.307 26.9767 278.127 26.8933 277.973 26.78C277.82 26.6667 277.697 26.52 277.603 26.34C277.517 26.1533 277.473 25.93 277.473 25.67C277.473 25.3767 277.523 25.1367 277.623 24.95C277.723 24.7633 277.853 24.6133 278.013 24.5C278.18 24.38 278.367 24.29 278.573 24.23C278.787 24.17 279.003 24.12 279.223 24.08C279.457 24.0333 279.677 24 279.883 23.98C280.097 23.9533 280.283 23.92 280.443 23.88C280.603 23.8333 280.73 23.77 280.823 23.69C280.917 23.6033 280.963 23.48 280.963 23.32C280.963 23.1333 280.927 22.9833 280.853 22.87C280.787 22.7567 280.697 22.67 280.583 22.61C280.477 22.55 280.353 22.51 280.213 22.49C280.08 22.47 279.947 22.46 279.813 22.46C279.453 22.46 279.153 22.53 278.913 22.67C278.673 22.8033 278.543 23.06 278.523 23.44H277.673C277.687 23.12 277.753 22.85 277.873 22.63C277.993 22.41 278.153 22.2333 278.353 22.1C278.553 21.96 278.78 21.86 279.033 21.8C279.293 21.74 279.57 21.71 279.863 21.71C280.097 21.71 280.327 21.7267 280.553 21.76C280.787 21.7933 280.997 21.8633 281.183 21.97C281.37 22.07 281.52 22.2133 281.633 22.4C281.747 22.5867 281.803 22.83 281.803 23.13V25.79C281.803 25.99 281.813 26.1367 281.833 26.23C281.86 26.3233 281.94 26.37 282.073 26.37C282.147 26.37 282.233 26.3533 282.333 26.32V26.98ZM280.953 24.33C280.847 24.41 280.707 24.47 280.533 24.51C280.36 24.5433 280.177 24.5733 279.983 24.6C279.797 24.62 279.607 24.6467 279.413 24.68C279.22 24.7067 279.047 24.7533 278.893 24.82C278.74 24.8867 278.613 24.9833 278.513 25.11C278.42 25.23 278.373 25.3967 278.373 25.61C278.373 25.75 278.4 25.87 278.453 25.97C278.513 26.0633 278.587 26.14 278.673 26.2C278.767 26.26 278.873 26.3033 278.993 26.33C279.113 26.3567 279.24 26.37 279.373 26.37C279.653 26.37 279.893 26.3333 280.093 26.26C280.293 26.18 280.457 26.0833 280.583 25.97C280.71 25.85 280.803 25.7233 280.863 25.59C280.923 25.45 280.953 25.32 280.953 25.2V24.33ZM284.304 21.83H285.334V22.58H284.304V25.79C284.304 25.89 284.311 25.97 284.324 26.03C284.344 26.09 284.378 26.1367 284.424 26.17C284.471 26.2033 284.534 26.2267 284.614 26.24C284.701 26.2467 284.811 26.25 284.944 26.25H285.334V27H284.684C284.464 27 284.274 26.9867 284.114 26.96C283.961 26.9267 283.834 26.87 283.734 26.79C283.641 26.71 283.571 26.5967 283.524 26.45C283.478 26.3033 283.454 26.11 283.454 25.87V22.58H282.574V21.83H283.454V20.28H284.304V21.83Z" fill="#4048F3"/>
<path d="M387.01 24.05H389.43L388.24 20.72H388.22L387.01 24.05ZM387.72 19.86H388.77L391.56 27H390.51L389.73 24.85H386.71L385.91 27H384.94L387.72 19.86ZM396.584 26.56C396.584 27.4067 396.391 28.04 396.004 28.46C395.618 28.88 395.011 29.09 394.184 29.09C393.944 29.09 393.698 29.0633 393.444 29.01C393.198 28.9567 392.971 28.87 392.764 28.75C392.564 28.63 392.398 28.4733 392.264 28.28C392.131 28.0867 392.058 27.85 392.044 27.57H392.894C392.901 27.7233 392.948 27.8533 393.034 27.96C393.128 28.0667 393.238 28.1533 393.364 28.22C393.498 28.2867 393.641 28.3333 393.794 28.36C393.948 28.3933 394.094 28.41 394.234 28.41C394.514 28.41 394.751 28.36 394.944 28.26C395.138 28.1667 395.298 28.0333 395.424 27.86C395.551 27.6933 395.641 27.49 395.694 27.25C395.754 27.01 395.784 26.7467 395.784 26.46V26.12H395.764C395.618 26.44 395.394 26.6767 395.094 26.83C394.801 26.9767 394.488 27.05 394.154 27.05C393.768 27.05 393.431 26.98 393.144 26.84C392.858 26.7 392.618 26.5133 392.424 26.28C392.231 26.04 392.084 25.7633 391.984 25.45C391.891 25.13 391.844 24.7933 391.844 24.44C391.844 24.1333 391.884 23.82 391.964 23.5C392.044 23.1733 392.178 22.88 392.364 22.62C392.551 22.3533 392.798 22.1367 393.104 21.97C393.411 21.7967 393.788 21.71 394.234 21.71C394.561 21.71 394.861 21.7833 395.134 21.93C395.408 22.07 395.621 22.2833 395.774 22.57H395.784V21.83H396.584V26.56ZM394.204 26.31C394.484 26.31 394.721 26.2533 394.914 26.14C395.114 26.02 395.274 25.8667 395.394 25.68C395.514 25.4867 395.601 25.27 395.654 25.03C395.714 24.79 395.744 24.55 395.744 24.31C395.744 24.0833 395.718 23.86 395.664 23.64C395.611 23.42 395.524 23.2233 395.404 23.05C395.291 22.87 395.141 22.7267 394.954 22.62C394.768 22.5133 394.541 22.46 394.274 22.46C394.001 22.46 393.768 22.5133 393.574 22.62C393.381 22.72 393.221 22.8567 393.094 23.03C392.974 23.2033 392.884 23.4033 392.824 23.63C392.771 23.8567 392.744 24.0933 392.744 24.34C392.744 24.5733 392.768 24.8067 392.814 25.04C392.861 25.2733 392.941 25.4867 393.054 25.68C393.168 25.8667 393.318 26.02 393.504 26.14C393.691 26.2533 393.924 26.31 394.204 26.31ZM402.447 26.98C402.3 27.0667 402.097 27.11 401.837 27.11C401.617 27.11 401.44 27.05 401.307 26.93C401.18 26.8033 401.117 26.6 401.117 26.32C400.883 26.6 400.61 26.8033 400.297 26.93C399.99 27.05 399.657 27.11 399.297 27.11C399.063 27.11 398.84 27.0833 398.627 27.03C398.42 26.9767 398.24 26.8933 398.087 26.78C397.933 26.6667 397.81 26.52 397.717 26.34C397.63 26.1533 397.587 25.93 397.587 25.67C397.587 25.3767 397.637 25.1367 397.737 24.95C397.837 24.7633 397.967 24.6133 398.127 24.5C398.293 24.38 398.48 24.29 398.687 24.23C398.9 24.17 399.117 24.12 399.337 24.08C399.57 24.0333 399.79 24 399.997 23.98C400.21 23.9533 400.397 23.92 400.557 23.88C400.717 23.8333 400.843 23.77 400.937 23.69C401.03 23.6033 401.077 23.48 401.077 23.32C401.077 23.1333 401.04 22.9833 400.967 22.87C400.9 22.7567 400.81 22.67 400.697 22.61C400.59 22.55 400.467 22.51 400.327 22.49C400.193 22.47 400.06 22.46 399.927 22.46C399.567 22.46 399.267 22.53 399.027 22.67C398.787 22.8033 398.657 23.06 398.637 23.44H397.787C397.8 23.12 397.867 22.85 397.987 22.63C398.107 22.41 398.267 22.2333 398.467 22.1C398.667 21.96 398.893 21.86 399.147 21.8C399.407 21.74 399.683 21.71 399.977 21.71C400.21 21.71 400.44 21.7267 400.667 21.76C400.9 21.7933 401.11 21.8633 401.297 21.97C401.483 22.07 401.633 22.2133 401.747 22.4C401.86 22.5867 401.917 22.83 401.917 23.13V25.79C401.917 25.99 401.927 26.1367 401.947 26.23C401.973 26.3233 402.053 26.37 402.187 26.37C402.26 26.37 402.347 26.3533 402.447 26.32V26.98ZM401.067 24.33C400.96 24.41 400.82 24.47 400.647 24.51C400.473 24.5433 400.29 24.5733 400.097 24.6C399.91 24.62 399.72 24.6467 399.527 24.68C399.333 24.7067 399.16 24.7533 399.007 24.82C398.853 24.8867 398.727 24.9833 398.627 25.11C398.533 25.23 398.487 25.3967 398.487 25.61C398.487 25.75 398.513 25.87 398.567 25.97C398.627 26.0633 398.7 26.14 398.787 26.2C398.88 26.26 398.987 26.3033 399.107 26.33C399.227 26.3567 399.353 26.37 399.487 26.37C399.767 26.37 400.007 26.3333 400.207 26.26C400.407 26.18 400.57 26.0833 400.697 25.97C400.823 25.85 400.917 25.7233 400.977 25.59C401.037 25.45 401.067 25.32 401.067 25.2V24.33ZM404.138 20.9H403.288V19.86H404.138V20.9ZM403.288 21.83H404.138V27H403.288V21.83ZM405.454 21.83H406.254V22.65H406.274C406.628 22.0233 407.188 21.71 407.954 21.71C408.294 21.71 408.578 21.7567 408.804 21.85C409.031 21.9433 409.214 22.0733 409.354 22.24C409.494 22.4067 409.591 22.6067 409.644 22.84C409.704 23.0667 409.734 23.32 409.734 23.6V27H408.884V23.5C408.884 23.18 408.791 22.9267 408.604 22.74C408.418 22.5533 408.161 22.46 407.834 22.46C407.574 22.46 407.348 22.5 407.154 22.58C406.968 22.66 406.811 22.7733 406.684 22.92C406.558 23.0667 406.461 23.24 406.394 23.44C406.334 23.6333 406.304 23.8467 406.304 24.08V27H405.454V21.83Z" fill="#4048F3"/>
</svg>
